<?xml version="1.0" encoding="UTF-8"?>
<svg xmlns="http://www.w3.org/2000/svg" xmlns:xlink="http://www.w3.org/1999/xlink" width="594.95996pt" height="841.91998pt" viewBox="0 0 594.95996 841.91998" version="1.1">
<defs>
<clipPath id="clip1">
  <path d="M 36 36 L 559 36 L 559 805.574219 L 36 805.574219 Z M 36 36 "/>
</clipPath>
<clipPath id="clip2">
  <path d="M 109 40.421875 L 113 40.421875 L 113 47 L 109 47 Z M 109 40.421875 "/>
</clipPath>
<clipPath id="clip3">
  <path d="M 40.421875 120 L 44 120 L 44 126 L 40.421875 126 Z M 40.421875 120 "/>
</clipPath>
</defs>
<g id="surface1">
<g clip-path="url(#clip1)" clip-rule="nonzero">
<path style=" stroke:none;fill-rule:nonzero;fill:rgb(100%,100%,100%);fill-opacity:1;" d="M 36 36 L 559 36 L 559 805.574219 L 36 805.574219 Z M 36 36 "/>
</g>
<path style=" stroke:none;fill-rule:evenodd;fill:rgb(100%,100%,100%);fill-opacity:1;" d="M 540.480469 130.347656 C 540.480469 130.527344 540.355469 130.671875 540.203125 130.671875 C 535.910156 130.671875 533.621094 131.777344 529.964844 133.542969 C 529.675781 133.683594 529.382812 133.824219 529.078125 133.972656 C 528.570312 134.214844 527.988281 134.0625 527.410156 133.71875 C 526.824219 133.367188 526.183594 132.785156 525.515625 132.058594 C 524.183594 130.601562 522.6875 128.503906 521.230469 126.304688 C 520.25 124.828125 519.28125 123.300781 518.386719 121.886719 C 517.945312 121.191406 517.523438 120.519531 517.121094 119.898438 C 516.515625 118.953125 515.964844 118.117188 515.492188 117.453125 C 515.015625 116.777344 514.636719 116.304688 514.367188 116.066406 C 507.199219 109.675781 497.183594 114.878906 495.464844 123.875 C 495.042969 126.09375 494.589844 127.757812 494.089844 128.976562 C 493.59375 130.199219 493.050781 131 492.433594 131.457031 C 491.175781 132.386719 489.78125 131.777344 488.363281 130.890625 C 487.9375 130.625 487.507812 130.332031 487.066406 130.03125 C 485.980469 129.292969 484.832031 128.511719 483.570312 127.996094 C 481.824219 127.28125 479.90625 127.105469 477.761719 128.351562 C 477.109375 128.734375 476.1875 129.644531 475.15625 130.828125 C 474.132812 132.003906 473.023438 133.421875 471.996094 134.785156 C 470.972656 136.144531 470.035156 137.449219 469.351562 138.402344 L 469.347656 138.40625 C 469.003906 138.882812 468.726562 139.273438 468.53125 139.535156 C 468.433594 139.667969 468.351562 139.773438 468.296875 139.84375 C 468.269531 139.875 468.238281 139.910156 468.210938 139.9375 C 468.199219 139.945312 468.167969 139.980469 468.117188 140 C 468.101562 140.007812 468.015625 140.042969 467.917969 140 C 467.789062 139.941406 467.75 139.808594 467.742188 139.738281 C 467.398438 136.546875 465.863281 133.105469 463.699219 130.59375 C 461.535156 128.078125 458.785156 126.539062 456.023438 127.03125 C 451.558594 127.832031 448.980469 130.976562 446.828125 134.753906 C 446.140625 135.964844 445.503906 137.222656 444.863281 138.492188 C 444.5 139.214844 444.128906 139.945312 443.75 140.667969 C 442.714844 142.644531 441.601562 144.554688 440.226562 146.15625 C 440.054688 146.355469 439.867188 146.480469 439.660156 146.527344 C 439.453125 146.570312 439.253906 146.53125 439.070312 146.445312 C 438.71875 146.277344 438.386719 145.925781 438.09375 145.5625 C 437.945312 145.378906 437.796875 145.183594 437.652344 144.992188 C 437.507812 144.800781 437.371094 144.621094 437.238281 144.457031 C 437.101562 144.289062 436.976562 144.152344 436.859375 144.042969 C 436.742188 143.933594 436.644531 143.875 436.566406 143.847656 C 435.53125 143.503906 434.136719 143.425781 432.726562 143.515625 C 431.316406 143.601562 429.914062 143.859375 428.867188 144.164062 C 427.1875 144.652344 425.054688 145.941406 422.675781 147.582031 C 421.382812 148.472656 420.035156 149.453125 418.660156 150.453125 C 417.496094 151.300781 416.308594 152.167969 415.113281 153.007812 C 412.523438 154.824219 409.929688 156.503906 407.558594 157.550781 C 405.199219 158.589844 403.007812 159.03125 401.257812 158.277344 C 399.917969 157.703125 398.738281 157.089844 397.625 156.496094 C 397.429688 156.390625 397.238281 156.285156 397.046875 156.183594 C 396.144531 155.699219 395.285156 155.238281 394.40625 154.820312 C 392.28125 153.820312 390.058594 153.105469 387.003906 153.105469 C 385.597656 153.105469 384.804688 153.453125 384.28125 153.886719 C 384.011719 154.105469 383.804688 154.355469 383.617188 154.613281 C 383.53125 154.726562 383.457031 154.839844 383.375 154.953125 L 383.339844 155.007812 C 383.25 155.140625 383.15625 155.273438 383.058594 155.398438 C 382.859375 155.652344 382.636719 155.894531 382.339844 156.066406 C 382.042969 156.242188 381.691406 156.335938 381.25 156.332031 C 380.386719 156.324219 379.160156 155.925781 377.265625 154.945312 C 374.4375 153.480469 371.902344 151.136719 369.394531 148.703125 C 369.101562 148.421875 368.808594 148.136719 368.515625 147.847656 C 366.292969 145.683594 364.070312 143.515625 361.640625 141.84375 C 360.847656 141.296875 359.441406 140.101562 357.664062 138.59375 C 357.046875 138.070312 356.382812 137.503906 355.683594 136.917969 C 352.96875 134.632812 349.707031 131.964844 346.441406 129.6875 C 343.175781 127.40625 339.925781 125.53125 337.242188 124.816406 C 335.898438 124.460938 334.71875 124.398438 333.757812 124.699219 C 332.804688 124.996094 332.054688 125.648438 331.546875 126.761719 C 330.023438 130.117188 330.128906 133.8125 330.242188 137.585938 C 330.25 137.878906 330.257812 138.171875 330.265625 138.46875 C 330.375 142.515625 330.335938 146.613281 327.957031 150.175781 C 324.644531 155.140625 322.308594 161.28125 322.308594 167.738281 C 322.308594 169.378906 321.898438 174.246094 321.285156 178.492188 C 320.976562 180.613281 320.613281 182.601562 320.214844 183.964844 C 320.023438 184.636719 319.808594 185.195312 319.570312 185.535156 C 319.453125 185.707031 319.304688 185.859375 319.117188 185.914062 C 318.910156 185.972656 318.714844 185.898438 318.558594 185.746094 C 317.054688 184.28125 314.546875 183.558594 311.511719 183.203125 C 308.914062 182.894531 305.984375 182.859375 303.058594 182.824219 C 302.574219 182.820312 302.09375 182.8125 301.613281 182.808594 C 298.226562 182.757812 294.910156 182.648438 292.25 182.042969 C 289.601562 181.4375 287.496094 180.320312 286.667969 178.152344 C 286.152344 176.800781 285.9375 175.5 285.789062 174.316406 C 285.753906 174.042969 285.726562 173.777344 285.695312 173.523438 C 285.59375 172.652344 285.503906 171.875 285.320312 171.179688 C 285.085938 170.300781 284.707031 169.59375 283.976562 169.070312 C 283.234375 168.535156 282.097656 168.167969 280.3125 168.058594 C 277.78125 167.90625 276.066406 167.378906 274.902344 166.492188 C 273.726562 165.589844 273.148438 164.339844 272.839844 162.828125 C 272.574219 161.527344 272.507812 160.003906 272.433594 158.328125 C 272.421875 158.085938 272.410156 157.839844 272.398438 157.589844 C 272.308594 155.609375 272.164062 153.398438 271.679688 150.988281 C 271.601562 150.597656 271.519531 150.023438 271.429688 149.371094 C 271.402344 149.179688 271.375 148.980469 271.347656 148.78125 C 271.21875 147.878906 271.066406 146.878906 270.863281 145.972656 C 270.660156 145.058594 270.410156 144.273438 270.109375 143.78125 C 269.960938 143.535156 269.8125 143.382812 269.671875 143.3125 C 269.539062 143.246094 269.386719 143.234375 269.195312 143.320312 C 264.597656 145.402344 259.867188 146.863281 255.125 148.324219 L 254.816406 148.421875 C 251.070312 149.578125 248.496094 150.203125 246.679688 150.292969 C 244.855469 150.386719 243.734375 149.945312 242.964844 148.894531 C 242.589844 148.382812 242.308594 147.742188 242.066406 147 C 241.824219 146.257812 241.609375 145.390625 241.367188 144.417969 L 241.339844 144.296875 C 240.863281 142.367188 240.277344 139.976562 239.167969 137.128906 C 238.207031 134.667969 236.875 132.980469 235.355469 131.46875 C 234.671875 130.789062 233.957031 130.152344 233.21875 129.492188 C 233.128906 129.414062 233.039062 129.332031 232.949219 129.253906 C 232.117188 128.507812 231.261719 127.730469 230.410156 126.851562 C 229.792969 126.210938 228.820312 125.539062 227.675781 124.828125 C 227.171875 124.515625 226.628906 124.191406 226.070312 123.859375 C 225.386719 123.449219 224.6875 123.03125 224.023438 122.613281 C 222.800781 121.839844 221.628906 121.027344 220.738281 120.164062 C 219.855469 119.308594 219.199219 118.359375 219.09375 117.300781 C 218.875 115.175781 218.15625 114.195312 217.230469 113.84375 C 216.265625 113.472656 214.984375 113.742188 213.59375 114.390625 C 210.824219 115.679688 207.84375 118.34375 206.617188 119.488281 C 205.121094 120.882812 203.640625 122.242188 202.179688 123.582031 C 191.488281 133.410156 181.847656 142.265625 174.777344 156.679688 L 174.726562 156.789062 C 174.078125 158.113281 171.828125 162.707031 169.648438 165.664062 C 169.085938 166.425781 168.519531 167.09375 167.980469 167.566406 C 167.449219 168.035156 166.902344 168.351562 166.382812 168.339844 C 165.828125 168.328125 165.390625 167.9375 165.089844 167.222656 C 164.792969 166.523438 164.609375 165.46875 164.546875 164.015625 C 164.359375 159.648438 162.980469 154.980469 161.199219 150.445312 C 159.808594 146.902344 158.179688 143.464844 156.695312 140.332031 C 156.28125 139.453125 155.875 138.597656 155.492188 137.773438 C 148.238281 122.214844 140.203125 106.183594 127.589844 95.925781 C 126.675781 95.179688 125.859375 94.53125 125.117188 93.945312 C 123.140625 92.378906 121.703125 91.238281 120.410156 89.859375 C 118.621094 87.945312 117.105469 85.570312 114.765625 80.972656 C 114.59375 80.632812 114.421875 80.292969 114.246094 79.949219 C 111.859375 75.242188 109.3125 70.210938 106.167969 66.742188 C 104.488281 64.886719 102.648438 63.492188 100.585938 62.835938 C 98.527344 62.179688 96.230469 62.246094 93.621094 63.351562 C 92.710938 63.738281 91.738281 64.519531 90.75 65.554688 C 89.761719 66.585938 88.773438 67.855469 87.828125 69.195312 C 86.289062 71.378906 84.886719 73.730469 83.820312 75.515625 C 83.578125 75.917969 83.351562 76.296875 83.148438 76.632812 C 75.527344 89.214844 65.761719 99.023438 55.882812 108.949219 C 54.292969 110.550781 52.699219 112.152344 51.109375 113.765625 C 50.992188 113.882812 50.820312 113.871094 50.71875 113.734375 C 50.617188 113.601562 50.628906 113.398438 50.746094 113.28125 C 52.339844 111.660156 53.933594 110.054688 55.527344 108.457031 C 65.410156 98.527344 75.117188 88.773438 82.695312 76.261719 C 82.898438 75.929688 83.121094 75.554688 83.359375 75.15625 C 84.425781 73.367188 85.847656 70.992188 87.402344 68.785156 C 88.355469 67.433594 89.363281 66.136719 90.378906 65.074219 C 91.394531 64.015625 92.425781 63.171875 93.433594 62.746094 C 96.140625 61.601562 98.554688 61.519531 100.730469 62.214844 C 102.90625 62.910156 104.824219 64.371094 106.546875 66.277344 C 109.75 69.808594 112.339844 74.914062 114.714844 79.601562 C 114.890625 79.953125 115.066406 80.300781 115.242188 80.644531 C 117.574219 85.226562 119.054688 87.535156 120.785156 89.382812 C 122.046875 90.730469 123.4375 91.832031 125.394531 93.386719 C 126.140625 93.976562 126.972656 94.636719 127.90625 95.398438 C 140.636719 105.753906 148.730469 121.917969 155.976562 137.464844 C 156.359375 138.285156 156.761719 139.132812 157.175781 140.007812 C 158.660156 143.144531 160.300781 146.609375 161.703125 150.175781 C 163.496094 154.738281 164.90625 159.492188 165.101562 163.984375 C 165.160156 165.410156 165.339844 166.355469 165.585938 166.9375 C 165.824219 167.507812 166.105469 167.6875 166.394531 167.695312 C 166.722656 167.703125 167.144531 167.496094 167.648438 167.054688 C 168.140625 166.617188 168.679688 165.992188 169.226562 165.246094 C 171.371094 162.335938 173.601562 157.789062 174.25 156.464844 L 174.296875 156.363281 C 181.421875 141.832031 191.152344 132.894531 201.839844 123.074219 C 203.300781 121.734375 204.777344 120.375 206.269531 118.984375 C 207.496094 117.84375 210.535156 115.121094 213.390625 113.792969 C 214.808594 113.132812 216.246094 112.785156 217.402344 113.230469 C 218.601562 113.6875 219.410156 114.949219 219.640625 117.226562 C 219.722656 118.027344 220.238281 118.839844 221.09375 119.667969 C 221.941406 120.488281 223.070312 121.277344 224.285156 122.046875 C 224.960938 122.472656 225.640625 122.875 226.308594 123.277344 C 226.859375 123.605469 227.40625 123.933594 227.933594 124.261719 C 229.078125 124.972656 230.105469 125.671875 230.78125 126.371094 C 231.613281 127.234375 232.457031 128 233.289062 128.742188 C 233.378906 128.820312 233.464844 128.902344 233.554688 128.980469 C 234.292969 129.640625 235.019531 130.289062 235.714844 130.976562 C 237.269531 132.527344 238.664062 134.285156 239.671875 136.863281 C 240.796875 139.753906 241.394531 142.179688 241.867188 144.113281 L 241.898438 144.242188 C 242.140625 145.222656 242.347656 146.058594 242.582031 146.769531 C 242.816406 147.480469 243.066406 148.042969 243.382812 148.476562 C 244 149.316406 244.917969 149.742188 246.65625 149.652344 C 248.40625 149.5625 250.925781 148.953125 254.675781 147.796875 L 254.96875 147.707031 C 259.722656 146.242188 264.425781 144.789062 268.996094 142.71875 C 269.308594 142.578125 269.613281 142.582031 269.890625 142.722656 C 270.160156 142.855469 270.378906 143.109375 270.5625 143.40625 C 270.925781 144.003906 271.191406 144.882812 271.398438 145.8125 C 271.605469 146.75 271.765625 147.773438 271.890625 148.675781 C 271.921875 148.886719 271.949219 149.089844 271.976562 149.285156 C 272.066406 149.933594 272.144531 150.476562 272.21875 150.839844 C 272.714844 153.308594 272.859375 155.566406 272.953125 157.554688 C 272.964844 157.808594 272.972656 158.054688 272.984375 158.296875 C 273.058594 159.984375 273.125 161.441406 273.378906 162.679688 C 273.664062 164.078125 274.179688 165.167969 275.207031 165.953125 C 276.25 166.75 277.847656 167.261719 280.339844 167.417969 C 282.164062 167.527344 283.410156 167.90625 284.265625 168.519531 C 285.136719 169.148438 285.582031 170 285.847656 170.988281 C 286.046875 171.738281 286.144531 172.589844 286.246094 173.472656 C 286.277344 173.71875 286.304688 173.96875 286.335938 174.222656 C 286.484375 175.386719 286.6875 176.621094 287.171875 177.890625 C 287.882812 179.746094 289.730469 180.8125 292.355469 181.410156 C 294.960938 182.003906 298.226562 182.113281 301.621094 182.164062 C 302.097656 182.167969 302.578125 182.175781 303.058594 182.179688 C 305.984375 182.214844 308.945312 182.25 311.566406 182.558594 C 314.609375 182.917969 317.269531 183.652344 318.914062 185.25 C 318.964844 185.300781 318.980469 185.289062 318.980469 185.289062 C 319 185.28125 319.058594 185.25 319.140625 185.128906 C 319.3125 184.882812 319.5 184.421875 319.691406 183.757812 C 320.074219 182.445312 320.429688 180.5 320.738281 178.382812 C 321.351562 174.152344 321.757812 169.328125 321.757812 167.738281 C 321.757812 161.097656 324.152344 154.824219 327.519531 149.78125 C 329.765625 146.417969 329.820312 142.542969 329.714844 138.488281 C 329.707031 138.1875 329.695312 137.882812 329.6875 137.578125 C 329.578125 133.839844 329.460938 129.976562 331.058594 126.460938 C 331.640625 125.183594 332.519531 124.417969 333.613281 124.078125 C 334.699219 123.738281 335.976562 123.820312 337.363281 124.191406 C 340.140625 124.929688 343.449219 126.847656 346.726562 129.136719 C 350.011719 131.425781 353.289062 134.109375 356.007812 136.394531 C 356.722656 136.996094 357.394531 137.566406 358.019531 138.097656 C 359.78125 139.59375 361.152344 140.757812 361.921875 141.289062 C 364.394531 142.988281 366.652344 145.195312 368.871094 147.355469 C 369.164062 147.640625 369.457031 147.925781 369.746094 148.210938 C 372.257812 150.644531 374.742188 152.933594 377.492188 154.359375 C 379.371094 155.332031 380.511719 155.679688 381.253906 155.6875 C 381.621094 155.691406 381.882812 155.613281 382.089844 155.492188 C 382.300781 155.367188 382.472656 155.191406 382.648438 154.96875 C 382.734375 154.855469 382.816406 154.734375 382.910156 154.605469 C 383 154.472656 383.09375 154.335938 383.195312 154.195312 C 383.402344 153.914062 383.644531 153.621094 383.960938 153.363281 C 384.601562 152.832031 385.515625 152.460938 387.003906 152.460938 C 390.144531 152.460938 392.4375 153.199219 394.613281 154.226562 C 395.507812 154.644531 396.378906 155.117188 397.28125 155.601562 C 397.472656 155.703125 397.664062 155.804688 397.855469 155.910156 C 398.964844 156.5 400.128906 157.105469 401.449219 157.671875 C 403.003906 158.339844 405.03125 157.976562 407.363281 156.949219 C 409.683594 155.925781 412.242188 154.269531 414.828125 152.453125 C 416 151.628906 417.1875 150.765625 418.355469 149.917969 C 419.742188 148.90625 421.105469 147.914062 422.390625 147.027344 C 424.769531 145.386719 426.96875 144.054688 428.734375 143.539062 C 429.816406 143.222656 431.253906 142.960938 432.695312 142.871094 C 434.132812 142.78125 435.597656 142.855469 436.71875 143.230469 C 436.894531 143.285156 437.054688 143.402344 437.199219 143.535156 C 437.347656 143.671875 437.496094 143.835938 437.636719 144.011719 C 437.777344 144.1875 437.921875 144.375 438.0625 144.5625 L 438.066406 144.570312 C 438.210938 144.757812 438.351562 144.945312 438.496094 145.121094 C 438.785156 145.476562 439.046875 145.738281 439.277344 145.847656 C 439.386719 145.898438 439.476562 145.910156 439.554688 145.894531 C 439.636719 145.875 439.726562 145.824219 439.835938 145.699219 C 441.160156 144.152344 442.25 142.292969 443.277344 140.332031 C 443.648438 139.628906 444.011719 138.910156 444.375 138.1875 C 445.023438 136.90625 445.671875 135.617188 446.367188 134.398438 C 448.554688 130.554688 451.25 127.238281 455.941406 126.394531 C 458.9375 125.859375 461.851562 127.539062 464.089844 130.136719 C 466.179688 132.566406 467.714844 135.839844 468.203125 138.992188 C 468.386719 138.738281 468.632812 138.398438 468.925781 137.992188 L 468.929688 137.988281 C 469.613281 137.035156 470.554688 135.726562 471.582031 134.359375 C 472.609375 132.992188 473.730469 131.5625 474.769531 130.371094 C 475.796875 129.1875 476.773438 128.207031 477.515625 127.777344 C 479.820312 126.433594 481.902344 126.632812 483.753906 127.386719 C 485.070312 127.925781 486.292969 128.757812 487.394531 129.507812 C 487.824219 129.796875 488.234375 130.078125 488.625 130.320312 C 490.0625 131.222656 491.175781 131.625 492.136719 130.910156 C 492.628906 130.546875 493.117188 129.863281 493.59375 128.703125 C 494.0625 127.542969 494.507812 125.929688 494.925781 123.734375 C 496.722656 114.308594 507.195312 108.859375 514.703125 115.554688 C 515.027344 115.84375 515.445312 116.371094 515.917969 117.042969 C 516.398438 117.71875 516.957031 118.566406 517.566406 119.511719 C 517.96875 120.140625 518.394531 120.8125 518.835938 121.511719 C 519.730469 122.925781 520.691406 124.441406 521.667969 125.910156 C 523.125 128.105469 524.59375 130.167969 525.894531 131.589844 C 526.546875 132.300781 527.140625 132.835938 527.660156 133.144531 C 528.1875 133.457031 528.582031 133.511719 528.867188 133.375 C 529.175781 133.226562 529.472656 133.085938 529.761719 132.945312 C 533.417969 131.175781 535.796875 130.027344 540.203125 130.027344 C 540.355469 130.027344 540.480469 130.171875 540.480469 130.347656 Z M 540.480469 130.347656 "/>
<path style=" stroke:none;fill-rule:nonzero;fill:rgb(100%,100%,100%);fill-opacity:1;" d="M 81.382812 46.414062 L 82.921875 46.414062 C 83.859375 46.414062 84.28125 45.871094 84.28125 45.152344 C 84.28125 44.425781 83.84375 44.019531 83.445312 43.992188 L 83.445312 43.945312 C 83.816406 43.835938 84.121094 43.542969 84.121094 42.957031 C 84.121094 42.265625 83.710938 41.726562 82.855469 41.726562 L 81.382812 41.726562 Z M 81.988281 45.808594 L 81.988281 44.304688 L 82.886719 44.304688 C 83.371094 44.304688 83.675781 44.671875 83.675781 45.117188 C 83.675781 45.511719 83.449219 45.808594 82.863281 45.808594 Z M 81.988281 43.753906 L 81.988281 42.328125 L 82.816406 42.328125 C 83.296875 42.328125 83.527344 42.625 83.527344 43.011719 C 83.527344 43.464844 83.210938 43.753906 82.800781 43.753906 Z M 81.988281 43.753906 "/>
<path style=" stroke:none;fill-rule:nonzero;fill:rgb(100%,100%,100%);fill-opacity:1;" d="M 85.828125 46.414062 L 88.375 46.414062 L 88.375 45.804688 L 86.433594 45.804688 L 86.433594 44.371094 L 88.21875 44.371094 L 88.21875 43.765625 L 86.433594 43.765625 L 86.433594 42.335938 L 88.347656 42.335938 L 88.347656 41.726562 L 85.828125 41.726562 Z M 85.828125 46.414062 "/>
<path style=" stroke:none;fill-rule:nonzero;fill:rgb(100%,100%,100%);fill-opacity:1;" d="M 89.683594 46.414062 L 89.859375 46.414062 C 90.773438 46.414062 90.992188 45.621094 91.046875 44.117188 L 91.109375 42.328125 L 92.480469 42.328125 L 92.480469 46.414062 L 93.078125 46.414062 L 93.078125 41.726562 L 90.535156 41.726562 L 90.46875 43.929688 C 90.425781 45.285156 90.285156 45.78125 89.800781 45.796875 L 89.683594 45.800781 Z M 89.683594 46.414062 "/>
<path style=" stroke:none;fill-rule:nonzero;fill:rgb(100%,100%,100%);fill-opacity:1;" d="M 94.792969 41.726562 L 94.792969 46.414062 L 95.347656 46.414062 L 97.394531 42.976562 L 97.429688 42.976562 L 97.429688 46.414062 L 98.039062 46.414062 L 98.039062 41.726562 L 97.476562 41.726562 L 95.429688 45.167969 L 95.394531 45.167969 L 95.394531 41.726562 Z M 94.792969 41.726562 "/>
<path style=" stroke:none;fill-rule:nonzero;fill:rgb(100%,100%,100%);fill-opacity:1;" d="M 102.132812 46.414062 L 102.875 46.414062 L 101.214844 43.847656 L 102.882812 41.726562 L 102.128906 41.726562 L 100.566406 43.707031 L 100.359375 43.707031 L 100.359375 41.726562 L 99.75 41.726562 L 99.75 46.414062 L 100.359375 46.414062 L 100.359375 44.3125 L 100.773438 44.3125 Z M 102.132812 46.414062 "/>
<path style=" stroke:none;fill-rule:nonzero;fill:rgb(100%,100%,100%);fill-opacity:1;" d="M 104.316406 41.726562 L 104.316406 46.414062 L 104.875 46.414062 L 106.917969 42.976562 L 106.957031 42.976562 L 106.957031 46.414062 L 107.5625 46.414062 L 107.5625 41.726562 L 107 41.726562 L 104.953125 45.167969 L 104.917969 45.167969 L 104.917969 41.726562 Z M 104.316406 41.726562 "/>
<g clip-path="url(#clip2)" clip-rule="nonzero">
<path style=" stroke:none;fill-rule:nonzero;fill:rgb(100%,100%,100%);fill-opacity:1;" d="M 109.277344 41.726562 L 109.277344 46.414062 L 109.835938 46.414062 L 111.878906 42.976562 L 111.914062 42.976562 L 111.914062 46.414062 L 112.523438 46.414062 L 112.523438 41.726562 L 111.960938 41.726562 L 109.914062 45.167969 L 109.878906 45.167969 L 109.878906 41.726562 Z M 111.285156 40.539062 C 111.285156 40.769531 111.175781 40.972656 110.898438 40.972656 C 110.621094 40.972656 110.515625 40.765625 110.515625 40.539062 L 110.035156 40.539062 C 110.035156 41.050781 110.371094 41.40625 110.898438 41.40625 C 111.433594 41.40625 111.765625 41.050781 111.765625 40.539062 Z M 111.285156 40.539062 "/>
</g>
<path style=" stroke:none;fill-rule:nonzero;fill:rgb(100%,100%,100%);fill-opacity:1;" d="M 78.867188 54.144531 L 79.472656 54.144531 L 79.472656 52.101562 L 81.476562 52.101562 L 81.476562 54.144531 L 82.085938 54.144531 L 82.085938 49.457031 L 81.476562 49.457031 L 81.476562 51.496094 L 79.472656 51.496094 L 79.472656 49.457031 L 78.867188 49.457031 Z M 78.867188 54.144531 "/>
<path style=" stroke:none;fill-rule:nonzero;fill:rgb(100%,100%,100%);fill-opacity:1;" d="M 87.292969 51.800781 C 87.292969 50.304688 86.523438 49.394531 85.480469 49.394531 C 84.4375 49.394531 83.671875 50.304688 83.671875 51.800781 C 83.671875 53.296875 84.4375 54.207031 85.480469 54.207031 C 86.523438 54.207031 87.292969 53.300781 87.292969 51.800781 Z M 86.691406 51.800781 C 86.691406 52.941406 86.171875 53.5625 85.480469 53.5625 C 84.789062 53.5625 84.273438 52.941406 84.273438 51.800781 C 84.273438 50.660156 84.789062 50.039062 85.480469 50.039062 C 86.171875 50.039062 86.691406 50.660156 86.691406 51.800781 Z M 86.691406 51.800781 "/>
<path style=" stroke:none;fill-rule:nonzero;fill:rgb(100%,100%,100%);fill-opacity:1;" d="M 88.878906 54.144531 L 90.417969 54.144531 C 91.355469 54.144531 91.777344 53.601562 91.777344 52.882812 C 91.777344 52.160156 91.339844 51.75 90.941406 51.722656 L 90.941406 51.679688 C 91.308594 51.566406 91.617188 51.273438 91.617188 50.691406 C 91.617188 49.996094 91.207031 49.457031 90.351562 49.457031 L 88.878906 49.457031 Z M 89.484375 53.539062 L 89.484375 52.039062 L 90.382812 52.039062 C 90.867188 52.039062 91.171875 52.402344 91.171875 52.847656 C 91.171875 53.242188 90.941406 53.539062 90.359375 53.539062 Z M 89.484375 51.484375 L 89.484375 50.058594 L 90.3125 50.058594 C 90.792969 50.058594 91.023438 50.355469 91.023438 50.746094 C 91.023438 51.199219 90.707031 51.484375 90.296875 51.484375 Z M 89.484375 51.484375 "/>
<path style=" stroke:none;fill-rule:nonzero;fill:rgb(100%,100%,100%);fill-opacity:1;" d="M 95.832031 49.457031 L 93.324219 49.457031 L 93.324219 54.144531 L 93.929688 54.144531 L 93.929688 50.066406 L 95.832031 50.066406 Z M 95.832031 49.457031 "/>
<path style=" stroke:none;fill-rule:nonzero;fill:rgb(100%,100%,100%);fill-opacity:1;" d="M 100.671875 51.800781 C 100.671875 50.304688 99.902344 49.394531 98.859375 49.394531 C 97.816406 49.394531 97.046875 50.304688 97.046875 51.800781 C 97.046875 53.296875 97.816406 54.207031 98.859375 54.207031 C 99.902344 54.207031 100.671875 53.300781 100.671875 51.800781 Z M 100.070312 51.800781 C 100.070312 52.941406 99.550781 53.5625 98.859375 53.5625 C 98.167969 53.5625 97.652344 52.941406 97.652344 51.800781 C 97.652344 50.660156 98.167969 50.039062 98.859375 50.039062 C 99.550781 50.039062 100.070312 50.660156 100.070312 51.800781 Z M 100.070312 51.800781 "/>
<path style=" stroke:none;fill-rule:nonzero;fill:rgb(100%,100%,100%);fill-opacity:1;" d="M 102.253906 54.144531 L 102.863281 54.144531 L 102.863281 52.496094 L 103.6875 52.496094 C 104.617188 52.496094 105.082031 51.839844 105.082031 50.976562 C 105.082031 50.113281 104.621094 49.457031 103.6875 49.457031 L 102.253906 49.457031 Z M 102.863281 51.898438 L 102.863281 50.066406 L 103.625 50.066406 C 104.226562 50.066406 104.46875 50.445312 104.46875 50.976562 C 104.46875 51.507812 104.226562 51.898438 103.632812 51.898438 Z M 102.863281 51.898438 "/>
<path style=" stroke:none;fill-rule:nonzero;fill:rgb(100%,100%,100%);fill-opacity:1;" d="M 110.113281 51.800781 C 110.113281 50.304688 109.34375 49.394531 108.304688 49.394531 C 107.257812 49.394531 106.492188 50.304688 106.492188 51.800781 C 106.492188 53.296875 107.257812 54.207031 108.304688 54.207031 C 109.34375 54.207031 110.113281 53.300781 110.113281 51.800781 Z M 109.511719 51.800781 C 109.511719 52.941406 108.996094 53.5625 108.304688 53.5625 C 107.609375 53.5625 107.09375 52.941406 107.09375 51.800781 C 107.09375 50.660156 107.609375 50.039062 108.304688 50.039062 C 108.996094 50.039062 109.511719 50.660156 109.511719 51.800781 Z M 109.511719 51.800781 "/>
<path style=" stroke:none;fill-rule:nonzero;fill:rgb(100%,100%,100%);fill-opacity:1;" d="M 111.394531 55.277344 L 111.976562 55.277344 L 111.976562 54.144531 L 114.675781 54.144531 L 114.675781 55.269531 L 115.257812 55.269531 L 115.257812 53.542969 L 114.800781 53.542969 L 114.800781 49.457031 L 112.320312 49.457031 L 112.226562 51.4375 C 112.167969 52.742188 111.929688 53.28125 111.660156 53.542969 L 111.394531 53.542969 Z M 112.375 53.542969 C 112.605469 53.117188 112.757812 52.429688 112.808594 51.4375 L 112.871094 50.066406 L 114.21875 50.066406 L 114.21875 53.542969 Z M 112.375 53.542969 "/>
<g clip-path="url(#clip3)" clip-rule="nonzero">
<path style=" stroke:none;fill-rule:nonzero;fill:rgb(100%,100%,100%);fill-opacity:1;" d="M 43.675781 120.972656 L 40.570312 120.972656 L 40.570312 125.65625 L 41.175781 125.65625 L 41.175781 121.574219 L 43.070312 121.574219 L 43.070312 125.65625 L 43.675781 125.65625 Z M 43.675781 120.972656 "/>
</g>
<path style=" stroke:none;fill-rule:nonzero;fill:rgb(100%,100%,100%);fill-opacity:1;" d="M 48.769531 122.496094 C 48.632812 121.492188 47.960938 120.90625 47.109375 120.90625 C 46.070312 120.90625 45.300781 121.816406 45.300781 123.3125 C 45.300781 124.8125 46.066406 125.722656 47.109375 125.722656 C 47.992188 125.722656 48.640625 125.074219 48.769531 124.148438 L 48.15625 124.148438 C 48.054688 124.746094 47.621094 125.074219 47.113281 125.074219 C 46.425781 125.074219 45.902344 124.460938 45.902344 123.3125 C 45.902344 122.175781 46.421875 121.550781 47.117188 121.550781 C 47.628906 121.550781 48.058594 121.886719 48.15625 122.496094 Z M 48.769531 122.496094 "/>
<path style=" stroke:none;fill-rule:nonzero;fill:rgb(100%,100%,100%);fill-opacity:1;" d="M 52.707031 125.65625 L 53.445312 125.65625 L 51.789062 123.089844 L 53.457031 120.972656 L 52.707031 120.972656 L 51.140625 122.949219 L 50.933594 122.949219 L 50.933594 120.972656 L 50.324219 120.972656 L 50.324219 125.65625 L 50.933594 125.65625 L 50.933594 123.554688 L 51.347656 123.554688 Z M 52.707031 125.65625 "/>
<path style=" stroke:none;fill-rule:nonzero;fill:rgb(100%,100%,100%);fill-opacity:1;" d="M 58.183594 123.3125 C 58.183594 121.816406 57.414062 120.90625 56.375 120.90625 C 55.328125 120.90625 54.5625 121.816406 54.5625 123.3125 C 54.5625 124.808594 55.328125 125.722656 56.375 125.722656 C 57.414062 125.722656 58.183594 124.8125 58.183594 123.3125 Z M 57.582031 123.3125 C 57.582031 124.457031 57.066406 125.074219 56.375 125.074219 C 55.679688 125.074219 55.164062 124.457031 55.164062 123.3125 C 55.164062 122.171875 55.679688 121.550781 56.375 121.550781 C 57.066406 121.550781 57.582031 122.171875 57.582031 123.3125 Z M 57.582031 123.3125 "/>
<path style=" stroke:none;fill-rule:nonzero;fill:rgb(100%,100%,100%);fill-opacity:1;" d="M 59.769531 125.65625 L 61.3125 125.65625 C 62.246094 125.65625 62.667969 125.113281 62.667969 124.394531 C 62.667969 123.671875 62.230469 123.261719 61.832031 123.238281 L 61.832031 123.191406 C 62.203125 123.082031 62.511719 122.789062 62.511719 122.203125 C 62.511719 121.507812 62.097656 120.972656 61.242188 120.972656 L 59.769531 120.972656 Z M 60.375 125.050781 L 60.375 123.550781 L 61.273438 123.550781 C 61.761719 123.550781 62.066406 123.914062 62.066406 124.363281 C 62.066406 124.753906 61.835938 125.050781 61.25 125.050781 Z M 60.375 123 L 60.375 121.574219 L 61.203125 121.574219 C 61.6875 121.574219 61.914062 121.867188 61.914062 122.257812 C 61.914062 122.710938 61.597656 123 61.1875 123 Z M 60.375 123 "/>
<path style=" stroke:none;fill-rule:nonzero;fill:rgb(100%,100%,100%);fill-opacity:1;" d="M 130.804688 138.972656 L 132.058594 138.972656 L 132.058594 143.050781 L 132.660156 143.050781 L 132.660156 138.972656 L 133.914062 138.972656 L 133.914062 138.367188 L 130.804688 138.367188 Z M 130.804688 138.972656 "/>
<path style=" stroke:none;fill-rule:nonzero;fill:rgb(100%,100%,100%);fill-opacity:1;" d="M 135.433594 143.050781 L 136.972656 143.050781 C 137.910156 143.050781 138.332031 142.507812 138.332031 141.789062 C 138.332031 141.066406 137.894531 140.65625 137.496094 140.628906 L 137.496094 140.585938 C 137.867188 140.476562 138.175781 140.183594 138.175781 139.597656 C 138.175781 138.902344 137.761719 138.367188 136.90625 138.367188 L 135.433594 138.367188 Z M 136.039062 142.445312 L 136.039062 140.945312 L 136.9375 140.945312 C 137.425781 140.945312 137.726562 141.308594 137.726562 141.757812 C 137.726562 142.148438 137.5 142.445312 136.914062 142.445312 Z M 136.039062 140.394531 L 136.039062 138.96875 L 136.867188 138.96875 C 137.347656 138.96875 137.578125 139.261719 137.578125 139.652344 C 137.578125 140.105469 137.261719 140.394531 136.851562 140.394531 Z M 136.039062 140.394531 "/>
<path style=" stroke:none;fill-rule:nonzero;fill:rgb(100%,100%,100%);fill-opacity:1;" d="M 139.878906 143.050781 L 142.425781 143.050781 L 142.425781 142.441406 L 140.488281 142.441406 L 140.488281 141.007812 L 142.269531 141.007812 L 142.269531 140.402344 L 140.488281 140.402344 L 140.488281 138.972656 L 142.402344 138.972656 L 142.402344 138.367188 L 139.878906 138.367188 Z M 139.878906 143.050781 "/>
<path style=" stroke:none;fill-rule:nonzero;fill:rgb(100%,100%,100%);fill-opacity:1;" d="M 144.039062 143.050781 L 144.648438 143.050781 L 144.648438 141.402344 L 145.472656 141.402344 C 146.402344 141.402344 146.867188 140.746094 146.867188 139.882812 C 146.867188 139.019531 146.40625 138.367188 145.472656 138.367188 L 144.039062 138.367188 Z M 144.648438 140.804688 L 144.648438 138.972656 L 145.410156 138.972656 C 146.007812 138.972656 146.253906 139.351562 146.253906 139.882812 C 146.253906 140.414062 146.007812 140.804688 145.417969 140.804688 Z M 144.648438 140.804688 "/>
<path style=" stroke:none;fill-rule:nonzero;fill:rgb(100%,100%,100%);fill-opacity:1;" d="M 149.019531 140.253906 L 149.019531 138.367188 L 148.410156 138.367188 L 148.410156 143.050781 L 149.914062 143.050781 C 150.8125 143.050781 151.324219 142.46875 151.320312 141.628906 C 151.324219 140.792969 150.8125 140.253906 149.914062 140.253906 Z M 149.019531 140.851562 L 149.914062 140.851562 C 150.4375 140.851562 150.722656 141.199219 150.722656 141.621094 C 150.722656 142.054688 150.4375 142.457031 149.914062 142.457031 L 149.019531 142.457031 Z M 149.019531 140.851562 "/>
<path style=" stroke:none;fill-rule:nonzero;fill:rgb(100%,100%,100%);fill-opacity:1;" d="M 185.078125 157.226562 L 185.078125 152.539062 L 183.644531 152.539062 C 182.710938 152.539062 182.253906 153.144531 182.253906 154.007812 C 182.253906 154.636719 182.496094 155.117188 182.992188 155.328125 L 182.097656 157.226562 L 182.789062 157.226562 L 183.605469 155.453125 C 183.621094 155.453125 183.632812 155.453125 183.644531 155.453125 L 184.472656 155.453125 L 184.472656 157.226562 Z M 184.472656 154.84375 L 183.703125 154.84375 C 183.109375 154.84375 182.863281 154.535156 182.863281 154.007812 C 182.863281 153.476562 183.109375 153.144531 183.710938 153.144531 L 184.472656 153.144531 Z M 184.472656 154.84375 "/>
<path style=" stroke:none;fill-rule:nonzero;fill:rgb(100%,100%,100%);fill-opacity:1;" d="M 186.789062 157.226562 L 187.394531 157.226562 L 187.394531 155.578125 L 188.21875 155.578125 C 189.152344 155.578125 189.613281 154.921875 189.613281 154.054688 C 189.613281 153.195312 189.15625 152.539062 188.222656 152.539062 L 186.789062 152.539062 Z M 187.394531 154.980469 L 187.394531 153.144531 L 188.15625 153.144531 C 188.757812 153.144531 189.003906 153.527344 189.003906 154.054688 C 189.003906 154.585938 188.757812 154.980469 188.164062 154.980469 Z M 187.394531 154.980469 "/>
<path style=" stroke:none;fill-rule:nonzero;fill:rgb(100%,100%,100%);fill-opacity:1;" d="M 194.648438 154.882812 C 194.648438 153.382812 193.878906 152.476562 192.835938 152.476562 C 191.792969 152.476562 191.023438 153.382812 191.023438 154.882812 C 191.023438 156.378906 191.792969 157.289062 192.835938 157.289062 C 193.878906 157.289062 194.648438 156.382812 194.648438 154.882812 Z M 194.046875 154.882812 C 194.046875 156.023438 193.527344 156.644531 192.835938 156.644531 C 192.144531 156.644531 191.628906 156.023438 191.628906 154.882812 C 191.628906 153.742188 192.144531 153.121094 192.835938 153.121094 C 193.527344 153.121094 194.046875 153.742188 194.046875 154.882812 Z M 194.046875 154.882812 "/>
<path style=" stroke:none;fill-rule:nonzero;fill:rgb(100%,100%,100%);fill-opacity:1;" d="M 199.570312 154.0625 C 199.433594 153.0625 198.761719 152.476562 197.910156 152.476562 C 196.871094 152.476562 196.101562 153.382812 196.101562 154.882812 C 196.101562 156.382812 196.867188 157.289062 197.910156 157.289062 C 198.792969 157.289062 199.441406 156.644531 199.570312 155.71875 L 198.960938 155.714844 C 198.855469 156.316406 198.421875 156.644531 197.914062 156.644531 C 197.226562 156.644531 196.707031 156.027344 196.707031 154.882812 C 196.707031 153.746094 197.222656 153.121094 197.917969 153.121094 C 198.429688 153.121094 198.859375 153.457031 198.960938 154.0625 Z M 199.570312 154.0625 "/>
<path style=" stroke:none;fill-rule:nonzero;fill:rgb(100%,100%,100%);fill-opacity:1;" d="M 200.824219 157.226562 L 200.996094 157.226562 C 201.910156 157.226562 202.128906 156.433594 202.183594 154.929688 L 202.246094 153.140625 L 203.617188 153.140625 L 203.617188 157.226562 L 204.21875 157.226562 L 204.21875 152.539062 L 201.675781 152.539062 L 201.605469 154.742188 C 201.5625 156.097656 201.421875 156.59375 200.941406 156.605469 L 200.824219 156.613281 Z M 200.824219 157.226562 "/>
<path style=" stroke:none;fill-rule:nonzero;fill:rgb(100%,100%,100%);fill-opacity:1;" d="M 206.269531 157.226562 L 206.640625 155.984375 L 208.210938 155.984375 L 208.578125 157.226562 L 209.21875 157.226562 L 207.773438 152.539062 L 207.074219 152.539062 L 205.625 157.226562 Z M 206.816406 155.390625 L 207.410156 153.390625 L 207.441406 153.390625 L 208.03125 155.390625 Z M 206.816406 155.390625 "/>
<path style=" stroke:none;fill-rule:nonzero;fill:rgb(100%,100%,100%);fill-opacity:1;" d="M 210.628906 157.226562 L 212.171875 157.226562 C 213.105469 157.226562 213.527344 156.683594 213.527344 155.964844 C 213.527344 155.238281 213.09375 154.828125 212.695312 154.804688 L 212.695312 154.757812 C 213.0625 154.648438 213.371094 154.355469 213.371094 153.769531 C 213.371094 153.078125 212.957031 152.539062 212.101562 152.539062 L 210.628906 152.539062 Z M 211.238281 156.617188 L 211.238281 155.117188 L 212.132812 155.117188 C 212.621094 155.117188 212.925781 155.484375 212.925781 155.929688 C 212.925781 156.324219 212.695312 156.617188 212.113281 156.617188 Z M 211.238281 154.566406 L 211.238281 153.140625 L 212.066406 153.140625 C 212.546875 153.140625 212.777344 153.4375 212.777344 153.824219 C 212.777344 154.277344 212.457031 154.566406 212.050781 154.566406 Z M 211.238281 154.566406 "/>
<path style=" stroke:none;fill-rule:nonzero;fill:rgb(100%,100%,100%);fill-opacity:1;" d="M 214.773438 157.226562 L 214.945312 157.226562 C 215.859375 157.226562 216.078125 156.433594 216.132812 154.929688 L 216.195312 153.140625 L 217.566406 153.140625 L 217.566406 157.226562 L 218.167969 157.226562 L 218.167969 152.539062 L 215.625 152.539062 L 215.554688 154.742188 C 215.511719 156.097656 215.371094 156.59375 214.890625 156.605469 L 214.773438 156.613281 Z M 214.773438 157.226562 "/>
<path style=" stroke:none;fill-rule:nonzero;fill:rgb(100%,100%,100%);fill-opacity:1;" d="M 220.492188 154.429688 L 220.492188 152.539062 L 219.882812 152.539062 L 219.882812 157.226562 L 221.390625 157.226562 C 222.285156 157.226562 222.796875 156.644531 222.796875 155.804688 C 222.796875 154.96875 222.285156 154.429688 221.390625 154.429688 Z M 220.492188 155.023438 L 221.390625 155.023438 C 221.910156 155.023438 222.195312 155.371094 222.195312 155.796875 C 222.195312 156.230469 221.910156 156.628906 221.390625 156.628906 L 220.492188 156.628906 Z M 220.492188 155.023438 "/>
<path style=" stroke:none;fill-rule:nonzero;fill:rgb(100%,100%,100%);fill-opacity:1;" d="M 228.285156 113.882812 L 228.285156 118.570312 L 228.859375 118.570312 L 228.859375 115.175781 L 228.898438 115.175781 L 230.082031 118.5625 L 230.5625 118.5625 L 231.75 115.179688 L 231.785156 115.179688 L 231.785156 118.570312 L 232.363281 118.570312 L 232.363281 113.882812 L 231.625 113.882812 L 230.347656 117.527344 L 230.300781 117.527344 L 229.019531 113.882812 Z M 228.285156 113.882812 "/>
<path style=" stroke:none;fill-rule:nonzero;fill:rgb(100%,100%,100%);fill-opacity:1;" d="M 234.515625 118.570312 L 234.886719 117.328125 L 236.457031 117.328125 L 236.824219 118.570312 L 237.46875 118.570312 L 236.019531 113.882812 L 235.320312 113.882812 L 233.871094 118.570312 Z M 235.0625 116.734375 L 235.65625 114.734375 L 235.6875 114.734375 L 236.28125 116.734375 Z M 235.0625 116.734375 "/>
<path style=" stroke:none;fill-rule:nonzero;fill:rgb(100%,100%,100%);fill-opacity:1;" d="M 238.878906 118.570312 L 239.484375 118.570312 L 239.484375 116.527344 L 241.488281 116.527344 L 241.488281 118.570312 L 242.097656 118.570312 L 242.097656 113.882812 L 241.488281 113.882812 L 241.488281 115.921875 L 239.484375 115.921875 L 239.484375 113.882812 L 238.878906 113.882812 Z M 238.878906 118.570312 "/>
<path style=" stroke:none;fill-rule:nonzero;fill:rgb(100%,100%,100%);fill-opacity:1;" d="M 243.613281 114.492188 L 244.863281 114.492188 L 244.863281 118.570312 L 245.46875 118.570312 L 245.46875 114.492188 L 246.722656 114.492188 L 246.722656 113.882812 L 243.613281 113.882812 Z M 243.613281 114.492188 "/>
<path style=" stroke:none;fill-rule:nonzero;fill:rgb(100%,100%,100%);fill-opacity:1;" d="M 248.523438 118.632812 L 248.800781 118.632812 C 249.429688 118.632812 249.636719 118.222656 249.8125 117.757812 L 251.203125 113.882812 L 250.566406 113.882812 L 249.628906 116.59375 L 248.574219 113.882812 L 247.929688 113.882812 L 249.34375 117.402344 L 249.285156 117.566406 C 249.199219 117.8125 249.066406 118.011719 248.765625 118.011719 L 248.523438 118.011719 Z M 248.523438 118.632812 "/>
<path style=" stroke:none;fill-rule:nonzero;fill:rgb(100%,100%,100%);fill-opacity:1;" d="M 252.605469 118.570312 L 253.210938 118.570312 L 253.210938 116.921875 L 254.039062 116.921875 C 254.96875 116.921875 255.429688 116.265625 255.429688 115.402344 C 255.429688 114.539062 254.972656 113.882812 254.039062 113.882812 L 252.605469 113.882812 Z M 253.210938 116.324219 L 253.210938 114.492188 L 253.972656 114.492188 C 254.574219 114.492188 254.820312 114.871094 254.820312 115.402344 C 254.820312 115.933594 254.574219 116.324219 253.980469 116.324219 Z M 253.210938 116.324219 "/>
<path style=" stroke:none;fill-rule:nonzero;fill:rgb(100%,100%,100%);fill-opacity:1;" d="M 260.464844 116.226562 C 260.464844 114.726562 259.695312 113.820312 258.652344 113.820312 C 257.609375 113.820312 256.84375 114.726562 256.84375 116.226562 C 256.84375 117.722656 257.609375 118.632812 258.652344 118.632812 C 259.695312 118.632812 260.464844 117.726562 260.464844 116.226562 Z M 259.863281 116.226562 C 259.863281 117.367188 259.34375 117.988281 258.652344 117.988281 C 257.960938 117.988281 257.445312 117.367188 257.445312 116.226562 C 257.445312 115.085938 257.960938 114.464844 258.652344 114.464844 C 259.34375 114.464844 259.863281 115.085938 259.863281 116.226562 Z M 259.863281 116.226562 "/>
<path style=" stroke:none;fill-rule:nonzero;fill:rgb(100%,100%,100%);fill-opacity:1;" d="M 262.050781 118.570312 L 263.589844 118.570312 C 264.527344 118.570312 264.949219 118.027344 264.949219 117.308594 C 264.949219 116.582031 264.511719 116.175781 264.113281 116.148438 L 264.113281 116.101562 C 264.484375 115.992188 264.789062 115.699219 264.789062 115.113281 C 264.789062 114.421875 264.378906 113.882812 263.523438 113.882812 L 262.050781 113.882812 Z M 262.65625 117.964844 L 262.65625 116.460938 L 263.554688 116.460938 C 264.039062 116.460938 264.34375 116.828125 264.34375 117.273438 C 264.34375 117.667969 264.117188 117.964844 263.53125 117.964844 Z M 262.65625 115.910156 L 262.65625 114.484375 L 263.484375 114.484375 C 263.964844 114.484375 264.195312 114.78125 264.195312 115.167969 C 264.195312 115.621094 263.878906 115.910156 263.46875 115.910156 Z M 262.65625 115.910156 "/>
<path style=" stroke:none;fill-rule:nonzero;fill:rgb(100%,100%,100%);fill-opacity:1;" d="M 269.988281 116.226562 C 269.988281 114.726562 269.21875 113.820312 268.179688 113.820312 C 267.132812 113.820312 266.367188 114.726562 266.367188 116.226562 C 266.367188 117.722656 267.132812 118.632812 268.179688 118.632812 C 269.21875 118.632812 269.988281 117.726562 269.988281 116.226562 Z M 269.386719 116.226562 C 269.386719 117.367188 268.871094 117.988281 268.179688 117.988281 C 267.484375 117.988281 266.96875 117.367188 266.96875 116.226562 C 266.96875 115.085938 267.484375 114.464844 268.179688 114.464844 C 268.871094 114.464844 269.386719 115.085938 269.386719 116.226562 Z M 269.386719 116.226562 "/>
<path style=" stroke:none;fill-rule:nonzero;fill:rgb(100%,100%,100%);fill-opacity:1;" d="M 259.695312 136.609375 L 260.433594 136.609375 L 258.777344 134.042969 L 260.445312 131.925781 L 259.695312 131.925781 L 258.128906 133.90625 L 257.921875 133.90625 L 257.921875 131.925781 L 257.3125 131.925781 L 257.3125 136.609375 L 257.921875 136.609375 L 257.921875 134.511719 L 258.335938 134.511719 Z M 259.695312 136.609375 "/>
<path style=" stroke:none;fill-rule:nonzero;fill:rgb(100%,100%,100%);fill-opacity:1;" d="M 265.171875 134.269531 C 265.171875 132.769531 264.402344 131.863281 263.363281 131.863281 C 262.316406 131.863281 261.550781 132.769531 261.550781 134.269531 C 261.550781 135.765625 262.316406 136.675781 263.363281 136.675781 C 264.402344 136.675781 265.171875 135.765625 265.171875 134.269531 Z M 264.570312 134.269531 C 264.570312 135.410156 264.054688 136.03125 263.363281 136.03125 C 262.667969 136.03125 262.152344 135.410156 262.152344 134.269531 C 262.152344 133.125 262.667969 132.507812 263.363281 132.507812 C 264.054688 132.507812 264.570312 133.125 264.570312 134.269531 Z M 264.570312 134.269531 "/>
<path style=" stroke:none;fill-rule:nonzero;fill:rgb(100%,100%,100%);fill-opacity:1;" d="M 266.390625 132.535156 L 267.644531 132.535156 L 267.644531 136.609375 L 268.25 136.609375 L 268.25 132.535156 L 269.503906 132.535156 L 269.503906 131.925781 L 266.390625 131.925781 Z M 266.390625 132.535156 "/>
<path style=" stroke:none;fill-rule:nonzero;fill:rgb(100%,100%,100%);fill-opacity:1;" d="M 271.019531 136.609375 L 273.566406 136.609375 L 273.566406 136.003906 L 271.628906 136.003906 L 271.628906 134.566406 L 273.410156 134.566406 L 273.410156 133.960938 L 271.628906 133.960938 L 271.628906 132.535156 L 273.542969 132.535156 L 273.542969 131.925781 L 271.019531 131.925781 Z M 271.019531 136.609375 "/>
<path style=" stroke:none;fill-rule:nonzero;fill:rgb(100%,100%,100%);fill-opacity:1;" d="M 274.878906 136.609375 L 275.050781 136.609375 C 275.964844 136.609375 276.183594 135.820312 276.238281 134.3125 L 276.300781 132.523438 L 277.671875 132.523438 L 277.671875 136.609375 L 278.273438 136.609375 L 278.273438 131.925781 L 275.730469 131.925781 L 275.660156 134.125 C 275.617188 135.484375 275.476562 135.980469 274.996094 135.992188 L 274.878906 135.996094 Z M 274.878906 136.609375 "/>
<path style=" stroke:none;fill-rule:nonzero;fill:rgb(100%,100%,100%);fill-opacity:1;" d="M 280.597656 133.816406 L 280.597656 131.925781 L 279.988281 131.925781 L 279.988281 136.609375 L 281.496094 136.609375 C 282.390625 136.609375 282.902344 136.03125 282.898438 135.191406 C 282.902344 134.351562 282.390625 133.816406 281.496094 133.816406 Z M 280.597656 134.410156 L 281.496094 134.410156 C 282.015625 134.410156 282.300781 134.757812 282.300781 135.179688 C 282.300781 135.617188 282.015625 136.015625 281.496094 136.015625 L 280.597656 136.015625 Z M 280.597656 134.410156 "/>
<path style=" stroke:none;fill-rule:nonzero;fill:rgb(100%,100%,100%);fill-opacity:1;" d="M 284.46875 136.609375 L 285.074219 136.609375 L 285.074219 134.566406 L 287.078125 134.566406 L 287.078125 136.609375 L 287.6875 136.609375 L 287.6875 131.925781 L 287.078125 131.925781 L 287.078125 133.960938 L 285.074219 133.960938 L 285.074219 131.925781 L 284.46875 131.925781 Z M 284.46875 136.609375 "/>
<path style=" stroke:none;fill-rule:nonzero;fill:rgb(100%,100%,100%);fill-opacity:1;" d="M 289.402344 131.925781 L 289.402344 136.609375 L 289.960938 136.609375 L 292.003906 133.175781 L 292.039062 133.175781 L 292.039062 136.609375 L 292.644531 136.609375 L 292.644531 131.925781 L 292.085938 131.925781 L 290.039062 135.367188 L 290.003906 135.367188 L 290.003906 131.925781 Z M 289.402344 131.925781 "/>
<path style=" stroke:none;fill-rule:nonzero;fill:rgb(100%,100%,100%);fill-opacity:1;" d="M 294.441406 131.925781 L 294.441406 133.472656 C 294.4375 134.515625 294.984375 134.929688 295.863281 134.929688 C 296.25 134.929688 296.582031 134.871094 296.871094 134.777344 L 296.871094 136.609375 L 297.472656 136.609375 L 297.472656 131.925781 L 296.871094 131.925781 L 296.871094 134.171875 C 296.570312 134.265625 296.199219 134.324219 295.863281 134.324219 C 295.339844 134.324219 295.039062 134.117188 295.039062 133.472656 L 295.039062 131.925781 Z M 294.441406 131.925781 "/>
<path style=" stroke:none;fill-rule:nonzero;fill:rgb(100%,100%,100%);fill-opacity:1;" d="M 300.964844 133.972656 L 299.179688 133.972656 L 299.179688 134.566406 L 300.964844 134.566406 Z M 300.964844 133.972656 "/>
<path style=" stroke:none;fill-rule:nonzero;fill:rgb(100%,100%,100%);fill-opacity:1;" d="M 303.980469 131.925781 L 303.414062 131.925781 C 303.394531 132.054688 303.085938 132.644531 302.5 132.644531 L 302.5 133.226562 C 302.957031 133.226562 303.273438 133.015625 303.339844 132.878906 L 303.371094 132.878906 L 303.371094 136.609375 L 303.980469 136.609375 Z M 303.980469 131.925781 "/>
<path style=" stroke:none;fill-rule:nonzero;fill:rgb(100%,100%,100%);fill-opacity:1;" d="M 332.515625 157.050781 L 330.007812 157.050781 L 330.007812 161.734375 L 330.613281 161.734375 L 330.613281 157.660156 L 332.515625 157.660156 Z M 332.515625 157.050781 "/>
<path style=" stroke:none;fill-rule:nonzero;fill:rgb(100%,100%,100%);fill-opacity:1;" d="M 333.722656 161.734375 L 333.898438 161.734375 C 334.8125 161.734375 335.03125 160.945312 335.085938 159.4375 L 335.148438 157.648438 L 336.519531 157.648438 L 336.519531 161.734375 L 337.117188 161.734375 L 337.117188 157.050781 L 334.574219 157.050781 L 334.507812 159.25 C 334.464844 160.609375 334.324219 161.105469 333.84375 161.117188 L 333.722656 161.121094 Z M 333.722656 161.734375 "/>
<path style=" stroke:none;fill-rule:nonzero;fill:rgb(100%,100%,100%);fill-opacity:1;" d="M 339.171875 161.734375 L 339.539062 160.496094 L 341.109375 160.496094 L 341.476562 161.734375 L 342.121094 161.734375 L 340.675781 157.050781 L 339.972656 157.050781 L 338.527344 161.734375 Z M 339.714844 159.902344 L 340.308594 157.902344 L 340.339844 157.902344 L 340.933594 159.902344 Z M 339.714844 159.902344 "/>
<path style=" stroke:none;fill-rule:nonzero;fill:rgb(100%,100%,100%);fill-opacity:1;" d="M 344.875 161.800781 C 345.695312 161.800781 346.300781 161.226562 346.296875 160.449219 C 346.300781 159.859375 345.992188 159.433594 345.457031 159.335938 L 345.457031 159.300781 C 345.878906 159.171875 346.152344 158.789062 346.148438 158.261719 C 346.152344 157.574219 345.664062 156.984375 344.890625 156.984375 C 344.152344 156.984375 343.5625 157.503906 343.542969 158.265625 L 344.128906 158.265625 C 344.140625 157.835938 344.488281 157.578125 344.882812 157.578125 C 345.292969 157.578125 345.5625 157.867188 345.5625 158.300781 C 345.5625 158.753906 345.25 159.050781 344.804688 159.050781 L 344.464844 159.050781 L 344.464844 159.625 L 344.804688 159.625 C 345.363281 159.625 345.683594 159.957031 345.683594 160.425781 C 345.683594 160.882812 345.34375 161.191406 344.871094 161.191406 C 344.4375 161.191406 344.097656 160.929688 344.074219 160.515625 L 343.457031 160.515625 C 343.484375 161.277344 344.0625 161.800781 344.875 161.800781 Z M 344.875 161.800781 "/>
<path style=" stroke:none;fill-rule:nonzero;fill:rgb(100%,100%,100%);fill-opacity:1;" d="M 351.417969 159.394531 C 351.417969 157.894531 350.648438 156.984375 349.605469 156.984375 C 348.5625 156.984375 347.792969 157.894531 347.792969 159.394531 C 347.792969 160.890625 348.5625 161.800781 349.605469 161.800781 C 350.648438 161.800781 351.417969 160.890625 351.417969 159.394531 Z M 350.816406 159.394531 C 350.816406 160.535156 350.296875 161.15625 349.605469 161.15625 C 348.914062 161.15625 348.398438 160.535156 348.398438 159.394531 C 348.398438 158.25 348.914062 157.632812 349.605469 157.632812 C 350.296875 157.632812 350.816406 158.25 350.816406 159.394531 Z M 350.816406 159.394531 "/>
<path style=" stroke:none;fill-rule:nonzero;fill:rgb(100%,100%,100%);fill-opacity:1;" d="M 353.003906 161.734375 L 354.542969 161.734375 C 355.476562 161.734375 355.898438 161.191406 355.898438 160.476562 C 355.898438 159.75 355.464844 159.339844 355.066406 159.316406 L 355.066406 159.269531 C 355.433594 159.160156 355.742188 158.867188 355.742188 158.28125 C 355.742188 157.585938 355.332031 157.050781 354.476562 157.050781 L 353.003906 157.050781 Z M 353.609375 161.128906 L 353.609375 159.628906 L 354.507812 159.628906 C 354.992188 159.628906 355.296875 159.996094 355.296875 160.441406 C 355.296875 160.835938 355.066406 161.128906 354.484375 161.128906 Z M 353.609375 159.078125 L 353.609375 157.652344 L 354.4375 157.652344 C 354.917969 157.652344 355.148438 157.945312 355.148438 158.335938 C 355.148438 158.789062 354.832031 159.078125 354.421875 159.078125 Z M 353.609375 159.078125 "/>
<path style=" stroke:none;fill-rule:nonzero;fill:rgb(100%,100%,100%);fill-opacity:1;" d="M 334.300781 115.511719 L 331.199219 115.511719 L 331.199219 120.195312 L 331.804688 120.195312 L 331.804688 116.113281 L 333.695312 116.113281 L 333.695312 120.195312 L 334.300781 120.195312 Z M 334.300781 115.511719 "/>
<path style=" stroke:none;fill-rule:nonzero;fill:rgb(100%,100%,100%);fill-opacity:1;" d="M 336.058594 120.195312 L 338.601562 120.195312 L 338.601562 119.585938 L 336.664062 119.585938 L 336.664062 118.152344 L 338.449219 118.152344 L 338.449219 117.546875 L 336.664062 117.546875 L 336.664062 116.117188 L 338.578125 116.117188 L 338.578125 115.511719 L 336.058594 115.511719 Z M 336.058594 120.195312 "/>
<path style=" stroke:none;fill-rule:nonzero;fill:rgb(100%,100%,100%);fill-opacity:1;" d="M 340.21875 120.195312 L 340.824219 120.195312 L 340.824219 118.546875 L 341.648438 118.546875 C 342.582031 118.546875 343.042969 117.890625 343.042969 117.027344 C 343.042969 116.164062 342.585938 115.511719 341.652344 115.511719 L 340.21875 115.511719 Z M 340.824219 117.949219 L 340.824219 116.117188 L 341.585938 116.117188 C 342.1875 116.117188 342.433594 116.496094 342.433594 117.027344 C 342.433594 117.558594 342.1875 117.949219 341.59375 117.949219 Z M 340.824219 117.949219 "/>
<path style=" stroke:none;fill-rule:nonzero;fill:rgb(100%,100%,100%);fill-opacity:1;" d="M 344.585938 115.511719 L 344.585938 120.195312 L 345.160156 120.195312 L 345.160156 116.804688 L 345.199219 116.804688 L 346.386719 120.1875 L 346.863281 120.1875 L 348.050781 116.804688 L 348.085938 116.804688 L 348.085938 120.195312 L 348.664062 120.195312 L 348.664062 115.511719 L 347.929688 115.511719 L 346.648438 119.152344 L 346.601562 119.152344 L 345.320312 115.511719 Z M 344.585938 115.511719 "/>
<path style=" stroke:none;fill-rule:nonzero;fill:rgb(100%,100%,100%);fill-opacity:1;" d="M 351.089844 117.398438 L 351.089844 115.511719 L 350.480469 115.511719 L 350.480469 120.195312 L 351.988281 120.195312 C 352.882812 120.195312 353.394531 119.613281 353.394531 118.773438 C 353.394531 117.9375 352.882812 117.398438 351.988281 117.398438 Z M 351.089844 117.996094 L 351.988281 117.996094 C 352.507812 117.996094 352.792969 118.34375 352.792969 118.765625 C 352.792969 119.199219 352.507812 119.601562 351.988281 119.601562 L 351.089844 119.601562 Z M 351.089844 117.996094 "/>
<path style=" stroke:none;fill-rule:nonzero;fill:rgb(100%,100%,100%);fill-opacity:1;" d="M 371.273438 140.265625 L 372.527344 140.265625 L 372.527344 144.339844 L 373.132812 144.339844 L 373.132812 140.265625 L 374.386719 140.265625 L 374.386719 139.65625 L 371.273438 139.65625 Z M 371.273438 140.265625 "/>
<path style=" stroke:none;fill-rule:nonzero;fill:rgb(100%,100%,100%);fill-opacity:1;" d="M 376.507812 139.65625 L 375.902344 139.65625 L 375.902344 144.339844 L 376.507812 144.339844 L 376.507812 142.351562 L 377.214844 142.351562 C 377.324219 143.636719 378.050781 144.40625 379.011719 144.40625 C 380.050781 144.40625 380.820312 143.496094 380.820312 142 C 380.820312 140.5 380.050781 139.589844 379.011719 139.589844 C 378.023438 139.589844 377.28125 140.402344 377.203125 141.757812 L 376.507812 141.757812 Z M 380.21875 142 C 380.21875 143.140625 379.699219 143.757812 379.011719 143.757812 C 378.316406 143.757812 377.800781 143.140625 377.800781 142 C 377.800781 140.855469 378.316406 140.234375 379.011719 140.234375 C 379.699219 140.234375 380.21875 140.855469 380.21875 142 Z M 380.21875 142 "/>
<path style=" stroke:none;fill-rule:nonzero;fill:rgb(100%,100%,100%);fill-opacity:1;" d="M 382.304688 139.65625 L 382.304688 144.339844 L 382.878906 144.339844 L 382.878906 140.949219 L 382.917969 140.949219 L 384.101562 144.332031 L 384.582031 144.332031 L 385.769531 140.949219 L 385.804688 140.949219 L 385.804688 144.339844 L 386.382812 144.339844 L 386.382812 139.65625 L 385.648438 139.65625 L 384.367188 143.296875 L 384.320312 143.296875 L 383.039062 139.65625 Z M 382.304688 139.65625 "/>
<path style=" stroke:none;fill-rule:nonzero;fill:rgb(100%,100%,100%);fill-opacity:1;" d="M 388.195312 144.339844 L 390.742188 144.339844 L 390.742188 143.730469 L 388.804688 143.730469 L 388.804688 142.296875 L 390.585938 142.296875 L 390.585938 141.691406 L 388.804688 141.691406 L 388.804688 140.265625 L 390.71875 140.265625 L 390.71875 139.65625 L 388.195312 139.65625 Z M 388.195312 144.339844 "/>
<path style=" stroke:none;fill-rule:nonzero;fill:rgb(100%,100%,100%);fill-opacity:1;" d="M 392.355469 144.339844 L 392.964844 144.339844 L 392.964844 142.296875 L 394.96875 142.296875 L 394.96875 144.339844 L 395.578125 144.339844 L 395.578125 139.65625 L 394.96875 139.65625 L 394.96875 141.691406 L 392.964844 141.691406 L 392.964844 139.65625 L 392.355469 139.65625 Z M 392.355469 144.339844 "/>
<path style=" stroke:none;fill-rule:nonzero;fill:rgb(100%,100%,100%);fill-opacity:1;" d="M 397.902344 141.542969 L 397.902344 139.65625 L 397.292969 139.65625 L 397.292969 144.339844 L 398.800781 144.339844 C 399.695312 144.339844 400.207031 143.757812 400.207031 142.917969 C 400.207031 142.082031 399.695312 141.542969 398.800781 141.542969 Z M 397.902344 142.140625 L 398.800781 142.140625 C 399.320312 142.140625 399.605469 142.488281 399.605469 142.910156 C 399.605469 143.34375 399.320312 143.746094 398.800781 143.746094 L 397.902344 143.746094 Z M 397.902344 142.140625 "/>
<path style=" stroke:none;fill-rule:nonzero;fill:rgb(100%,100%,100%);fill-opacity:1;" d="M 426.015625 156.171875 C 426.015625 154.671875 425.246094 153.765625 424.203125 153.765625 C 423.160156 153.765625 422.390625 154.671875 422.390625 156.171875 C 422.390625 157.667969 423.160156 158.578125 424.203125 158.578125 C 425.246094 158.578125 426.015625 157.667969 426.015625 156.171875 Z M 425.414062 156.171875 C 425.414062 157.3125 424.894531 157.933594 424.203125 157.933594 C 423.511719 157.933594 422.996094 157.3125 422.996094 156.171875 C 422.996094 155.027344 423.511719 154.410156 424.203125 154.410156 C 424.894531 154.410156 425.414062 155.027344 425.414062 156.171875 Z M 425.414062 156.171875 "/>
<path style=" stroke:none;fill-rule:nonzero;fill:rgb(100%,100%,100%);fill-opacity:1;" d="M 427.601562 153.828125 L 427.601562 158.511719 L 428.175781 158.511719 L 428.175781 155.121094 L 428.214844 155.121094 L 429.402344 158.507812 L 429.878906 158.507812 L 431.066406 155.121094 L 431.101562 155.121094 L 431.101562 158.511719 L 431.679688 158.511719 L 431.679688 153.828125 L 430.945312 153.828125 L 429.664062 157.46875 L 429.617188 157.46875 L 428.335938 153.828125 Z M 427.601562 153.828125 "/>
<path style=" stroke:none;fill-rule:nonzero;fill:rgb(100%,100%,100%);fill-opacity:1;" d="M 436.832031 155.351562 C 436.695312 154.347656 436.023438 153.765625 435.171875 153.765625 C 434.132812 153.765625 433.363281 154.671875 433.363281 156.171875 C 433.363281 157.667969 434.128906 158.578125 435.171875 158.578125 C 436.054688 158.578125 436.703125 157.933594 436.832031 157.007812 L 436.21875 157.003906 C 436.117188 157.601562 435.683594 157.933594 435.175781 157.933594 C 434.488281 157.933594 433.964844 157.316406 433.964844 156.171875 C 433.964844 155.035156 434.484375 154.410156 435.179688 154.410156 C 435.691406 154.410156 436.121094 154.746094 436.21875 155.351562 Z M 436.832031 155.351562 "/>
<path style=" stroke:none;fill-rule:nonzero;fill:rgb(100%,100%,100%);fill-opacity:1;" d="M 440.769531 158.511719 L 441.507812 158.511719 L 439.851562 155.945312 L 441.519531 153.828125 L 440.769531 153.828125 L 439.203125 155.808594 L 438.996094 155.808594 L 438.996094 153.828125 L 438.386719 153.828125 L 438.386719 158.511719 L 438.996094 158.511719 L 438.996094 156.414062 L 439.410156 156.414062 Z M 440.769531 158.511719 "/>
<path style=" stroke:none;fill-rule:nonzero;fill:rgb(100%,100%,100%);fill-opacity:1;" d="M 485.679688 107.617188 L 486.421875 107.617188 L 484.761719 105.050781 L 486.429688 102.933594 L 485.679688 102.933594 L 484.113281 104.910156 L 483.90625 104.910156 L 483.90625 102.933594 L 483.300781 102.933594 L 483.300781 107.617188 L 483.90625 107.617188 L 483.90625 105.515625 L 484.320312 105.515625 Z M 485.679688 107.617188 "/>
<path style=" stroke:none;fill-rule:nonzero;fill:rgb(100%,100%,100%);fill-opacity:1;" d="M 487.863281 107.617188 L 488.472656 107.617188 L 488.472656 105.96875 L 489.296875 105.96875 C 490.230469 105.96875 490.691406 105.3125 490.691406 104.449219 C 490.691406 103.585938 490.234375 102.933594 489.296875 102.933594 L 487.863281 102.933594 Z M 488.472656 105.371094 L 488.472656 103.539062 L 489.234375 103.539062 C 489.835938 103.539062 490.078125 103.917969 490.078125 104.449219 C 490.078125 104.980469 489.835938 105.371094 489.242188 105.371094 Z M 488.472656 105.371094 "/>
<path style=" stroke:none;fill-rule:nonzero;fill:rgb(100%,100%,100%);fill-opacity:1;" d="M 492.144531 107.617188 L 492.511719 106.378906 L 494.082031 106.378906 L 494.449219 107.617188 L 495.09375 107.617188 L 493.648438 102.933594 L 492.945312 102.933594 L 491.5 107.617188 Z M 492.691406 105.78125 L 493.28125 103.785156 L 493.3125 103.785156 L 493.90625 105.78125 Z M 492.691406 105.78125 "/>
<path style=" stroke:none;fill-rule:nonzero;fill:rgb(100%,100%,100%);fill-opacity:1;" d="M 499.65625 104.457031 C 499.515625 103.453125 498.84375 102.867188 497.992188 102.867188 C 496.953125 102.867188 496.1875 103.777344 496.1875 105.273438 C 496.1875 106.773438 496.949219 107.679688 497.992188 107.679688 C 498.878906 107.679688 499.523438 107.035156 499.65625 106.109375 L 499.042969 106.109375 C 498.9375 106.707031 498.507812 107.035156 497.996094 107.035156 C 497.308594 107.035156 496.789062 106.421875 496.789062 105.273438 C 496.789062 104.136719 497.308594 103.511719 498 103.511719 C 498.511719 103.511719 498.941406 103.847656 499.042969 104.457031 Z M 499.65625 104.457031 "/>
<path style=" stroke:none;fill-rule:nonzero;fill:rgb(100%,100%,100%);fill-opacity:1;" d="M 501.210938 107.617188 L 501.816406 107.617188 L 501.816406 105.574219 L 503.820312 105.574219 L 503.820312 107.617188 L 504.429688 107.617188 L 504.429688 102.933594 L 503.820312 102.933594 L 503.820312 104.96875 L 501.816406 104.96875 L 501.816406 102.933594 L 501.210938 102.933594 Z M 501.210938 107.617188 "/>
<path style=" stroke:none;fill-rule:nonzero;fill:rgb(100%,100%,100%);fill-opacity:1;" d="M 509.636719 105.273438 C 509.636719 103.777344 508.867188 102.867188 507.824219 102.867188 C 506.78125 102.867188 506.011719 103.777344 506.011719 105.273438 C 506.011719 106.769531 506.78125 107.679688 507.824219 107.679688 C 508.867188 107.679688 509.636719 106.773438 509.636719 105.273438 Z M 509.035156 105.273438 C 509.035156 106.417969 508.515625 107.035156 507.824219 107.035156 C 507.132812 107.035156 506.617188 106.417969 506.617188 105.273438 C 506.617188 104.132812 507.132812 103.511719 507.824219 103.511719 C 508.515625 103.511719 509.035156 104.132812 509.035156 105.273438 Z M 509.035156 105.273438 "/>
<path style=" stroke:none;fill-rule:nonzero;fill:rgb(100%,100%,100%);fill-opacity:1;" d="M 513.902344 107.617188 L 513.902344 102.933594 L 512.46875 102.933594 C 511.535156 102.933594 511.078125 103.539062 511.078125 104.402344 C 511.078125 105.03125 511.324219 105.507812 511.816406 105.722656 L 510.925781 107.617188 L 511.617188 107.617188 L 512.433594 105.84375 C 512.445312 105.84375 512.457031 105.84375 512.472656 105.84375 L 513.296875 105.84375 L 513.296875 107.617188 Z M 513.296875 105.234375 L 512.527344 105.234375 C 511.933594 105.234375 511.6875 104.929688 511.6875 104.402344 C 511.6875 103.871094 511.933594 103.539062 512.535156 103.539062 L 513.296875 103.539062 Z M 513.296875 105.234375 "/>
<path style=" stroke:none;fill-rule:nonzero;fill:rgb(100%,100%,100%);fill-opacity:1;" d="M 515.613281 107.617188 L 516.21875 107.617188 L 516.21875 105.96875 L 517.042969 105.96875 C 517.976562 105.96875 518.4375 105.3125 518.4375 104.449219 C 518.4375 103.585938 517.980469 102.933594 517.046875 102.933594 L 515.613281 102.933594 Z M 516.21875 105.371094 L 516.21875 103.539062 L 516.980469 103.539062 C 517.582031 103.539062 517.828125 103.917969 517.828125 104.449219 C 517.828125 104.980469 517.582031 105.371094 516.988281 105.371094 Z M 516.21875 105.371094 "/>
<path style=" stroke:none;fill-rule:nonzero;fill:rgb(100%,100%,100%);fill-opacity:1;" d="M 523.316406 104.457031 C 523.179688 103.453125 522.507812 102.867188 521.65625 102.867188 C 520.617188 102.867188 519.847656 103.777344 519.847656 105.273438 C 519.847656 106.773438 520.613281 107.679688 521.65625 107.679688 C 522.539062 107.679688 523.1875 107.035156 523.316406 106.109375 L 522.707031 106.109375 C 522.601562 106.707031 522.171875 107.035156 521.660156 107.035156 C 520.972656 107.035156 520.453125 106.421875 520.453125 105.273438 C 520.453125 104.136719 520.96875 103.511719 521.664062 103.511719 C 522.175781 103.511719 522.605469 103.847656 522.707031 104.457031 Z M 523.316406 104.457031 "/>
<path style=" stroke:none;fill-rule:nonzero;fill:rgb(100%,100%,100%);fill-opacity:1;" d="M 527.253906 107.617188 L 527.996094 107.617188 L 526.335938 105.050781 L 528.003906 102.933594 L 527.253906 102.933594 L 525.6875 104.910156 L 525.480469 104.910156 L 525.480469 102.933594 L 524.875 102.933594 L 524.875 107.617188 L 525.480469 107.617188 L 525.480469 105.515625 L 525.898438 105.515625 Z M 527.253906 107.617188 "/>
<path style=" stroke:none;fill-rule:nonzero;fill:rgb(100%,100%,100%);fill-opacity:1;" d="M 524.664062 144.40625 L 524.941406 144.40625 C 525.566406 144.40625 525.777344 143.996094 525.953125 143.527344 L 527.34375 139.65625 L 526.707031 139.65625 L 525.769531 142.363281 L 524.714844 139.65625 L 524.070312 139.65625 L 525.484375 143.171875 L 525.425781 143.339844 C 525.339844 143.582031 525.207031 143.78125 524.90625 143.78125 L 524.664062 143.78125 Z M 524.664062 144.40625 "/>
<path style=" stroke:none;fill-rule:nonzero;fill:rgb(100%,100%,100%);fill-opacity:1;" d="M 528.441406 144.339844 L 528.613281 144.339844 C 529.527344 144.339844 529.75 143.550781 529.800781 142.042969 L 529.863281 140.253906 L 531.238281 140.253906 L 531.238281 144.339844 L 531.835938 144.339844 L 531.835938 139.65625 L 529.292969 139.65625 L 529.226562 141.855469 C 529.183594 143.210938 529.039062 143.710938 528.558594 143.722656 L 528.441406 143.726562 Z M 528.441406 144.339844 "/>
<path style=" stroke:none;fill-rule:nonzero;fill:rgb(100%,100%,100%);fill-opacity:1;" d="M 533.886719 144.339844 L 534.257812 143.101562 L 535.828125 143.101562 L 536.195312 144.339844 L 536.839844 144.339844 L 535.390625 139.65625 L 534.691406 139.65625 L 533.246094 144.339844 Z M 534.433594 142.503906 L 535.027344 140.507812 L 535.058594 140.507812 L 535.652344 142.503906 Z M 534.433594 142.503906 "/>
<path style=" stroke:none;fill-rule:nonzero;fill:rgb(100%,100%,100%);fill-opacity:1;" d="M 538.25 144.339844 L 538.855469 144.339844 L 538.855469 142.296875 L 540.859375 142.296875 L 540.859375 144.339844 L 541.46875 144.339844 L 541.46875 139.65625 L 540.859375 139.65625 L 540.859375 141.691406 L 538.855469 141.691406 L 538.855469 139.65625 L 538.25 139.65625 Z M 538.25 144.339844 "/>
<path style=" stroke:none;fill-rule:nonzero;fill:rgb(100%,100%,100%);fill-opacity:1;" d="M 544.910156 141.703125 L 543.128906 141.703125 L 543.128906 142.296875 L 544.910156 142.296875 Z M 544.910156 141.703125 "/>
<path style=" stroke:none;fill-rule:nonzero;fill:rgb(100%,100%,100%);fill-opacity:1;" d="M 546.503906 144.40625 L 546.777344 144.40625 C 547.40625 144.40625 547.613281 143.996094 547.792969 143.527344 L 549.183594 139.65625 L 548.546875 139.65625 L 547.605469 142.363281 L 546.554688 139.65625 L 545.910156 139.65625 L 547.324219 143.171875 L 547.265625 143.339844 C 547.179688 143.582031 547.046875 143.78125 546.746094 143.78125 L 546.503906 143.78125 Z M 546.503906 144.40625 "/>
<path style=" stroke:none;fill-rule:nonzero;fill:rgb(100%,100%,100%);fill-opacity:1;" d="M 550.28125 145.472656 L 550.863281 145.472656 L 550.863281 144.339844 L 553.5625 144.339844 L 553.5625 145.464844 L 554.140625 145.464844 L 554.140625 143.742188 L 553.6875 143.742188 L 553.6875 139.65625 L 551.207031 139.65625 L 551.113281 141.632812 C 551.050781 142.9375 550.8125 143.476562 550.546875 143.742188 L 550.28125 143.742188 Z M 551.261719 143.742188 C 551.488281 143.3125 551.644531 142.625 551.695312 141.632812 L 551.757812 140.265625 L 553.105469 140.265625 L 553.105469 143.742188 Z M 551.261719 143.742188 "/>
<path style=" stroke:none;fill-rule:nonzero;fill:rgb(100%,100%,100%);fill-opacity:1;" d="M 555.507812 142.851562 C 555.585938 143.742188 556.082031 144.40625 557.054688 144.40625 C 558.023438 144.40625 558.644531 143.558594 558.644531 142.246094 L 558.644531 141.761719 C 558.644531 140.445312 558.015625 139.589844 557.019531 139.589844 C 556.074219 139.589844 555.585938 140.265625 555.507812 141.167969 L 556.125 141.167969 C 556.1875 140.5625 556.433594 140.199219 557.019531 140.199219 C 557.664062 140.199219 558.027344 140.808594 558.027344 141.753906 L 556.546875 141.753906 L 556.546875 142.355469 L 558.027344 142.355469 C 558 143.179688 557.691406 143.804688 557.054688 143.804688 C 556.449219 143.804688 556.195312 143.472656 556.125 142.851562 Z M 555.507812 142.851562 "/>
<path style=" stroke:none;fill-rule:nonzero;fill:rgb(15.289307%,15.289307%,13.328552%);fill-opacity:1;" d="M 99.4375 62.089844 C 99.4375 63.332031 98.574219 64.339844 97.507812 64.339844 C 96.441406 64.339844 95.574219 63.332031 95.574219 62.089844 C 95.574219 60.847656 96.441406 59.839844 97.507812 59.839844 C 98.574219 59.839844 99.4375 60.847656 99.4375 62.089844 Z M 99.4375 62.089844 "/>
<path style=" stroke:none;fill-rule:evenodd;fill:rgb(100%,100%,100%);fill-opacity:1;" d="M 97.507812 63.695312 C 98.265625 63.695312 98.886719 62.976562 98.886719 62.089844 C 98.886719 61.203125 98.265625 60.484375 97.507812 60.484375 C 96.746094 60.484375 96.128906 61.203125 96.128906 62.089844 C 96.128906 62.976562 96.746094 63.695312 97.507812 63.695312 Z M 97.507812 64.339844 C 98.574219 64.339844 99.4375 63.332031 99.4375 62.089844 C 99.4375 60.847656 98.574219 59.839844 97.507812 59.839844 C 96.441406 59.839844 95.574219 60.847656 95.574219 62.089844 C 95.574219 63.332031 96.441406 64.339844 97.507812 64.339844 Z M 97.507812 64.339844 "/>
<path style=" stroke:none;fill-rule:nonzero;fill:rgb(7.449341%,7.449341%,7.449341%);fill-opacity:1;" d="M 52.023438 114.378906 C 52.023438 115.621094 51.160156 116.628906 50.09375 116.628906 C 49.027344 116.628906 48.164062 115.621094 48.164062 114.378906 C 48.164062 113.136719 49.027344 112.128906 50.09375 112.128906 C 51.160156 112.128906 52.023438 113.136719 52.023438 114.378906 Z M 52.023438 114.378906 "/>
<path style=" stroke:none;fill-rule:evenodd;fill:rgb(100%,100%,100%);fill-opacity:1;" d="M 50.09375 115.984375 C 50.855469 115.984375 51.472656 115.265625 51.472656 114.378906 C 51.472656 113.492188 50.855469 112.773438 50.09375 112.773438 C 49.332031 112.773438 48.714844 113.492188 48.714844 114.378906 C 48.714844 115.265625 49.332031 115.984375 50.09375 115.984375 Z M 50.09375 116.628906 C 51.160156 116.628906 52.023438 115.621094 52.023438 114.378906 C 52.023438 113.136719 51.160156 112.128906 50.09375 112.128906 C 49.027344 112.128906 48.164062 113.136719 48.164062 114.378906 C 48.164062 115.621094 49.027344 116.628906 50.09375 116.628906 Z M 50.09375 116.628906 "/>
<path style=" stroke:none;fill-rule:nonzero;fill:rgb(30.198669%,33.729553%,28.239441%);fill-opacity:1;" d="M 159.300781 140.855469 C 159.300781 142.097656 158.433594 143.105469 157.367188 143.105469 C 156.300781 143.105469 155.4375 142.097656 155.4375 140.855469 C 155.4375 139.609375 156.300781 138.601562 157.367188 138.601562 C 158.433594 138.601562 159.300781 139.609375 159.300781 140.855469 Z M 159.300781 140.855469 "/>
<path style=" stroke:none;fill-rule:evenodd;fill:rgb(100%,100%,100%);fill-opacity:1;" d="M 157.367188 142.460938 C 158.128906 142.460938 158.746094 141.742188 158.746094 140.855469 C 158.746094 139.964844 158.128906 139.246094 157.367188 139.246094 C 156.605469 139.246094 155.988281 139.964844 155.988281 140.855469 C 155.988281 141.742188 156.605469 142.460938 157.367188 142.460938 Z M 157.367188 143.105469 C 158.433594 143.105469 159.300781 142.097656 159.300781 140.855469 C 159.300781 139.609375 158.433594 138.601562 157.367188 138.601562 C 156.300781 138.601562 155.4375 139.609375 155.4375 140.855469 C 155.4375 142.097656 156.300781 143.105469 157.367188 143.105469 Z M 157.367188 143.105469 "/>
<path style=" stroke:none;fill-rule:nonzero;fill:rgb(27.839661%,26.669312%,24.308777%);fill-opacity:1;" d="M 177.164062 154.921875 C 177.164062 156.164062 176.296875 157.171875 175.230469 157.171875 C 174.164062 157.171875 173.300781 156.164062 173.300781 154.921875 C 173.300781 153.675781 174.164062 152.667969 175.230469 152.667969 C 176.296875 152.667969 177.164062 153.675781 177.164062 154.921875 Z M 177.164062 154.921875 "/>
<path style=" stroke:none;fill-rule:evenodd;fill:rgb(100%,100%,100%);fill-opacity:1;" d="M 175.230469 156.527344 C 175.992188 156.527344 176.609375 155.808594 176.609375 154.921875 C 176.609375 154.035156 175.992188 153.3125 175.230469 153.3125 C 174.46875 153.3125 173.855469 154.035156 173.855469 154.921875 C 173.855469 155.808594 174.46875 156.527344 175.230469 156.527344 Z M 175.230469 157.171875 C 176.296875 157.171875 177.164062 156.164062 177.164062 154.921875 C 177.164062 153.675781 176.296875 152.667969 175.230469 152.667969 C 174.164062 152.667969 173.300781 153.675781 173.300781 154.921875 C 173.300781 156.164062 174.164062 157.171875 175.230469 157.171875 Z M 175.230469 157.171875 "/>
<path style=" stroke:none;fill-rule:nonzero;fill:rgb(57.649231%,64.309692%,48.629761%);fill-opacity:1;" d="M 225.921875 122.289062 C 225.921875 123.53125 225.058594 124.539062 223.992188 124.539062 C 222.925781 124.539062 222.058594 123.53125 222.058594 122.289062 C 222.058594 121.046875 222.925781 120.039062 223.992188 120.039062 C 225.058594 120.039062 225.921875 121.046875 225.921875 122.289062 Z M 225.921875 122.289062 "/>
<path style=" stroke:none;fill-rule:evenodd;fill:rgb(100%,100%,100%);fill-opacity:1;" d="M 223.992188 123.894531 C 224.753906 123.894531 225.367188 123.175781 225.367188 122.289062 C 225.367188 121.402344 224.753906 120.683594 223.992188 120.683594 C 223.230469 120.683594 222.613281 121.402344 222.613281 122.289062 C 222.613281 123.175781 223.230469 123.894531 223.992188 123.894531 Z M 223.992188 124.539062 C 225.058594 124.539062 225.921875 123.53125 225.921875 122.289062 C 225.921875 121.046875 225.058594 120.039062 223.992188 120.039062 C 222.925781 120.039062 222.058594 121.046875 222.058594 122.289062 C 222.058594 123.53125 222.925781 124.539062 223.992188 124.539062 Z M 223.992188 124.539062 "/>
<path style=" stroke:none;fill-rule:nonzero;fill:rgb(45.098877%,56.079102%,54.899597%);fill-opacity:1;" d="M 268.890625 144.230469 C 268.890625 145.472656 268.023438 146.480469 266.957031 146.480469 C 265.890625 146.480469 265.027344 145.472656 265.027344 144.230469 C 265.027344 142.988281 265.890625 141.980469 266.957031 141.980469 C 268.023438 141.980469 268.890625 142.988281 268.890625 144.230469 Z M 268.890625 144.230469 "/>
<path style=" stroke:none;fill-rule:evenodd;fill:rgb(100%,100%,100%);fill-opacity:1;" d="M 266.957031 145.835938 C 267.71875 145.835938 268.335938 145.117188 268.335938 144.230469 C 268.335938 143.34375 267.71875 142.625 266.957031 142.625 C 266.195312 142.625 265.578125 143.34375 265.578125 144.230469 C 265.578125 145.117188 266.195312 145.835938 266.957031 145.835938 Z M 266.957031 146.480469 C 268.023438 146.480469 268.890625 145.472656 268.890625 144.230469 C 268.890625 142.988281 268.023438 141.980469 266.957031 141.980469 C 265.890625 141.980469 265.027344 142.988281 265.027344 144.230469 C 265.027344 145.472656 265.890625 146.480469 266.957031 146.480469 Z M 266.957031 146.480469 "/>
<path style=" stroke:none;fill-rule:nonzero;fill:rgb(47.059631%,56.858826%,52.549744%);fill-opacity:1;" d="M 325.371094 159.421875 C 325.371094 160.664062 324.507812 161.671875 323.441406 161.671875 C 322.375 161.671875 321.511719 160.664062 321.511719 159.421875 C 321.511719 158.179688 322.375 157.171875 323.441406 157.171875 C 324.507812 157.171875 325.371094 158.179688 325.371094 159.421875 Z M 325.371094 159.421875 "/>
<path style=" stroke:none;fill-rule:evenodd;fill:rgb(100%,100%,100%);fill-opacity:1;" d="M 323.441406 161.027344 C 324.203125 161.027344 324.820312 160.308594 324.820312 159.421875 C 324.820312 158.535156 324.203125 157.816406 323.441406 157.816406 C 322.679688 157.816406 322.0625 158.535156 322.0625 159.421875 C 322.0625 160.308594 322.679688 161.027344 323.441406 161.027344 Z M 323.441406 161.671875 C 324.507812 161.671875 325.371094 160.664062 325.371094 159.421875 C 325.371094 158.179688 324.507812 157.171875 323.441406 157.171875 C 322.375 157.171875 321.511719 158.179688 321.511719 159.421875 C 321.511719 160.664062 322.375 161.671875 323.441406 161.671875 Z M 323.441406 161.671875 "/>
<path style=" stroke:none;fill-rule:nonzero;fill:rgb(54.899597%,72.938538%,73.329163%);fill-opacity:1;" d="M 343.71875 126.230469 C 343.71875 127.472656 342.851562 128.480469 341.785156 128.480469 C 340.71875 128.480469 339.855469 127.472656 339.855469 126.230469 C 339.855469 124.984375 340.71875 123.976562 341.785156 123.976562 C 342.851562 123.976562 343.71875 124.984375 343.71875 126.230469 Z M 343.71875 126.230469 "/>
<path style=" stroke:none;fill-rule:evenodd;fill:rgb(100%,100%,100%);fill-opacity:1;" d="M 341.785156 127.835938 C 342.546875 127.835938 343.164062 127.117188 343.164062 126.230469 C 343.164062 125.339844 342.546875 124.625 341.785156 124.625 C 341.023438 124.625 340.40625 125.339844 340.40625 126.230469 C 340.40625 127.117188 341.023438 127.835938 341.785156 127.835938 Z M 341.785156 128.480469 C 342.851562 128.480469 343.71875 127.472656 343.71875 126.230469 C 343.71875 124.984375 342.851562 123.976562 341.785156 123.976562 C 340.71875 123.976562 339.855469 124.984375 339.855469 126.230469 C 339.855469 127.472656 340.71875 128.480469 341.785156 128.480469 Z M 341.785156 128.480469 "/>
<path style=" stroke:none;fill-rule:nonzero;fill:rgb(25.489807%,28.239441%,27.839661%);fill-opacity:1;" d="M 375.097656 151.546875 C 375.097656 152.789062 374.230469 153.796875 373.164062 153.796875 C 372.097656 153.796875 371.234375 152.789062 371.234375 151.546875 C 371.234375 150.300781 372.097656 149.292969 373.164062 149.292969 C 374.230469 149.292969 375.097656 150.300781 375.097656 151.546875 Z M 375.097656 151.546875 "/>
<path style=" stroke:none;fill-rule:evenodd;fill:rgb(100%,100%,100%);fill-opacity:1;" d="M 373.164062 153.152344 C 373.925781 153.152344 374.542969 152.433594 374.542969 151.546875 C 374.542969 150.65625 373.925781 149.9375 373.164062 149.9375 C 372.402344 149.9375 371.785156 150.65625 371.785156 151.546875 C 371.785156 152.433594 372.402344 153.152344 373.164062 153.152344 Z M 373.164062 153.796875 C 374.230469 153.796875 375.097656 152.789062 375.097656 151.546875 C 375.097656 150.300781 374.230469 149.292969 373.164062 149.292969 C 372.097656 149.292969 371.234375 150.300781 371.234375 151.546875 C 371.234375 152.789062 372.097656 153.796875 373.164062 153.796875 Z M 373.164062 153.796875 "/>
<path style=" stroke:none;fill-rule:nonzero;fill:rgb(34.118652%,45.098877%,47.44873%);fill-opacity:1;" d="M 433.511719 143.105469 C 433.511719 144.347656 432.648438 145.355469 431.582031 145.355469 C 430.515625 145.355469 429.652344 144.347656 429.652344 143.105469 C 429.652344 141.863281 430.515625 140.855469 431.582031 140.855469 C 432.648438 140.855469 433.511719 141.863281 433.511719 143.105469 Z M 433.511719 143.105469 "/>
<path style=" stroke:none;fill-rule:evenodd;fill:rgb(100%,100%,100%);fill-opacity:1;" d="M 431.582031 144.710938 C 432.34375 144.710938 432.960938 143.992188 432.960938 143.105469 C 432.960938 142.21875 432.34375 141.5 431.582031 141.5 C 430.820312 141.5 430.203125 142.21875 430.203125 143.105469 C 430.203125 143.992188 430.820312 144.710938 431.582031 144.710938 Z M 431.582031 145.355469 C 432.648438 145.355469 433.511719 144.347656 433.511719 143.105469 C 433.511719 141.863281 432.648438 140.855469 431.582031 140.855469 C 430.515625 140.855469 429.652344 141.863281 429.652344 143.105469 C 429.652344 144.347656 430.515625 145.355469 431.582031 145.355469 Z M 431.582031 145.355469 "/>
<path style=" stroke:none;fill-rule:nonzero;fill:rgb(24.308777%,25.099182%,22.749329%);fill-opacity:1;" d="M 508.109375 112.726562 C 508.109375 113.96875 507.246094 114.976562 506.179688 114.976562 C 505.113281 114.976562 504.246094 113.96875 504.246094 112.726562 C 504.246094 111.480469 505.113281 110.472656 506.179688 110.472656 C 507.246094 110.472656 508.109375 111.480469 508.109375 112.726562 Z M 508.109375 112.726562 "/>
<path style=" stroke:none;fill-rule:evenodd;fill:rgb(100%,100%,100%);fill-opacity:1;" d="M 506.179688 114.332031 C 506.941406 114.332031 507.558594 113.613281 507.558594 112.726562 C 507.558594 111.835938 506.941406 111.117188 506.179688 111.117188 C 505.417969 111.117188 504.800781 111.835938 504.800781 112.726562 C 504.800781 113.613281 505.417969 114.332031 506.179688 114.332031 Z M 506.179688 114.976562 C 507.246094 114.976562 508.109375 113.96875 508.109375 112.726562 C 508.109375 111.480469 507.246094 110.472656 506.179688 110.472656 C 505.113281 110.472656 504.246094 111.480469 504.246094 112.726562 C 504.246094 113.96875 505.113281 114.976562 506.179688 114.976562 Z M 506.179688 114.976562 "/>
<path style=" stroke:none;fill-rule:nonzero;fill:rgb(9.408569%,10.198975%,9.799194%);fill-opacity:1;" d="M 542.960938 130.484375 C 542.960938 131.726562 542.097656 132.734375 541.03125 132.734375 C 539.964844 132.734375 539.097656 131.726562 539.097656 130.484375 C 539.097656 129.242188 539.964844 128.234375 541.03125 128.234375 C 542.097656 128.234375 542.960938 129.242188 542.960938 130.484375 Z M 542.960938 130.484375 "/>
<path style=" stroke:none;fill-rule:evenodd;fill:rgb(100%,100%,100%);fill-opacity:1;" d="M 541.03125 132.089844 C 541.789062 132.089844 542.40625 131.371094 542.40625 130.484375 C 542.40625 129.597656 541.789062 128.878906 541.03125 128.878906 C 540.269531 128.878906 539.652344 129.597656 539.652344 130.484375 C 539.652344 131.371094 540.269531 132.089844 541.03125 132.089844 Z M 541.03125 132.734375 C 542.097656 132.734375 542.960938 131.726562 542.960938 130.484375 C 542.960938 129.242188 542.097656 128.234375 541.03125 128.234375 C 539.964844 128.234375 539.097656 129.242188 539.097656 130.484375 C 539.097656 131.726562 539.964844 132.734375 541.03125 132.734375 Z M 541.03125 132.734375 "/>
</g>
</svg>
